<svg xmlns="http://www.w3.org/2000/svg" viewBox="0 0 64 64">
  <defs>
    <linearGradient id="grad" x1="0%" y1="0%" x2="100%" y2="100%">
      <stop offset="0%" stop-color="#3B82F6"></stop>
      <stop offset="100%" stop-color="#8B5CF6"></stop>
    </linearGradient>
  </defs>

  <!-- Background -->
  <rect width="64" height="64" rx="14" fill="url(#grad)"></rect>

  <!-- Document -->
  <path d="M20 14h18l8 8v28a4 4 0 0 1-4 4H20a4 4 0 0 1-4-4V18a4 4 0 0 1 4-4z" fill="white"></path>

  <!-- Fold -->
  <path d="M38 14v8h8" fill="#E5E7EB"></path>

  <!-- Text lines -->
  <rect x="23" y="27" width="18" height="2.5" rx="1.2" fill="#CBD5E1"></rect>
  <rect x="23" y="33" width="16" height="2.5" rx="1.2" fill="#CBD5E1"></rect>
  <rect x="23" y="39" width="12" height="2.5" rx="1.2" fill="#CBD5E1"></rect>

  <!-- Pencil -->
  <g transform="rotate(-35 43 43)">
    <rect x="36" y="41" width="16" height="4" rx="2" fill="#F59E0B"></rect>
    <polygon points="52,41 56,43 52,45" fill="#92400E"></polygon>
    <rect x="34" y="41" width="2" height="4" fill="#FCA5A5"></rect>
  </g>
</svg>